<mxfile host="65bd71144e">
    <diagram id="4dPWLi5nc-H3m1od8i04" name="Page-1">
        <mxGraphModel dx="900" dy="546" grid="1" gridSize="10" guides="1" tooltips="1" connect="1" arrows="1" fold="1" page="1" pageScale="1" pageWidth="1169" pageHeight="827" math="1" shadow="0">
            <root>
                <mxCell id="0"/>
                <mxCell id="1" parent="0"/>
                <mxCell id="3" value="" style="shape=ext;double=1;rounded=0;whiteSpace=wrap;html=1;" parent="1" vertex="1">
                    <mxGeometry width="240" height="170" as="geometry"/>
                </mxCell>
                <mxCell id="4" value="Server param:" style="text;html=1;strokeColor=none;fillColor=none;align=center;verticalAlign=middle;whiteSpace=wrap;rounded=0;" parent="1" vertex="1">
                    <mxGeometry width="240" height="30" as="geometry"/>
                </mxCell>
                <mxCell id="5" value="IPaddr" style="text;html=1;strokeColor=none;fillColor=none;align=center;verticalAlign=middle;whiteSpace=wrap;rounded=0;" parent="1" vertex="1">
                    <mxGeometry y="30" width="90" height="30" as="geometry"/>
                </mxCell>
                <mxCell id="6" value="Port" style="text;html=1;strokeColor=none;fillColor=none;align=center;verticalAlign=middle;whiteSpace=wrap;rounded=0;" parent="1" vertex="1">
                    <mxGeometry y="60" width="90" height="30" as="geometry"/>
                </mxCell>
                <mxCell id="7" value="xxx.xxx.xxx.xxx" style="text;html=1;strokeColor=none;fillColor=none;align=center;verticalAlign=middle;whiteSpace=wrap;rounded=0;" parent="1" vertex="1">
                    <mxGeometry x="90" y="30" width="90" height="30" as="geometry"/>
                </mxCell>
                <mxCell id="8" value="/xx" style="text;html=1;strokeColor=none;fillColor=none;align=center;verticalAlign=middle;whiteSpace=wrap;rounded=0;" parent="1" vertex="1">
                    <mxGeometry x="90" y="60" width="90" height="30" as="geometry"/>
                </mxCell>
                <mxCell id="9" value="Status" style="text;html=1;strokeColor=none;fillColor=none;align=center;verticalAlign=middle;whiteSpace=wrap;rounded=0;" parent="1" vertex="1">
                    <mxGeometry y="90" width="90" height="30" as="geometry"/>
                </mxCell>
                <mxCell id="10" value="&lt;font color=&quot;#00ff00&quot;&gt;On&lt;/font&gt; &lt;font color=&quot;#ff0000&quot;&gt;Off&lt;/font&gt;" style="text;html=1;strokeColor=none;fillColor=none;align=center;verticalAlign=middle;whiteSpace=wrap;rounded=0;" parent="1" vertex="1">
                    <mxGeometry x="90" y="90" width="90" height="30" as="geometry"/>
                </mxCell>
                <mxCell id="11" value="&lt;i&gt;date time&lt;/i&gt;: &lt;b&gt;start 192.168.1.1&lt;/b&gt;&lt;br style=&quot;font-size: 10px;&quot;&gt;&lt;i&gt;date time&lt;/i&gt;:&amp;nbsp;&lt;b&gt;port 8804&lt;/b&gt;&lt;br style=&quot;font-size: 10px;&quot;&gt;&lt;i&gt;date time&lt;/i&gt;:&amp;nbsp;&lt;b&gt;recieve...&lt;/b&gt;" style="rounded=1;whiteSpace=wrap;html=1;fontSize=10;align=left;" parent="1" vertex="1">
                    <mxGeometry x="10" y="120" width="220" height="40" as="geometry"/>
                </mxCell>
                <mxCell id="12" value="" style="shape=ext;double=1;rounded=0;whiteSpace=wrap;html=1;" parent="1" vertex="1">
                    <mxGeometry y="190" width="240" height="170" as="geometry"/>
                </mxCell>
                <mxCell id="13" value="(0, 0, 240, 30)" style="text;html=1;strokeColor=none;fillColor=none;align=center;verticalAlign=middle;whiteSpace=wrap;rounded=0;" parent="1" vertex="1">
                    <mxGeometry y="190" width="240" height="30" as="geometry"/>
                </mxCell>
                <mxCell id="14" value="(0, 30, 90, 30)" style="text;html=1;strokeColor=none;fillColor=none;align=center;verticalAlign=middle;whiteSpace=wrap;rounded=0;" parent="1" vertex="1">
                    <mxGeometry y="220" width="90" height="30" as="geometry"/>
                </mxCell>
                <mxCell id="15" value="(0, 60, 90, 30)" style="text;html=1;strokeColor=none;fillColor=none;align=center;verticalAlign=middle;whiteSpace=wrap;rounded=0;" parent="1" vertex="1">
                    <mxGeometry y="250" width="90" height="30" as="geometry"/>
                </mxCell>
                <mxCell id="16" value="(240,30,90,30)" style="text;html=1;strokeColor=none;fillColor=none;align=left;verticalAlign=middle;whiteSpace=wrap;rounded=0;" parent="1" vertex="1">
                    <mxGeometry x="90" y="220" width="90" height="30" as="geometry"/>
                </mxCell>
                <mxCell id="17" value="(240,60,90,30)" style="text;html=1;strokeColor=none;fillColor=none;align=left;verticalAlign=middle;whiteSpace=wrap;rounded=0;" parent="1" vertex="1">
                    <mxGeometry x="90" y="250" width="90" height="30" as="geometry"/>
                </mxCell>
                <mxCell id="18" value="(0, 90, 90, 30)" style="text;html=1;strokeColor=none;fillColor=none;align=center;verticalAlign=middle;whiteSpace=wrap;rounded=0;" parent="1" vertex="1">
                    <mxGeometry y="280" width="90" height="30" as="geometry"/>
                </mxCell>
                <mxCell id="19" value="&lt;font&gt;(240,90,90,30)&lt;/font&gt;" style="text;html=1;strokeColor=none;fillColor=none;align=left;verticalAlign=middle;whiteSpace=wrap;rounded=0;fontColor=default;" parent="1" vertex="1">
                    <mxGeometry x="90" y="280" width="90" height="30" as="geometry"/>
                </mxCell>
                <mxCell id="20" value="&lt;i&gt;(10, 120, 220, 40)&lt;/i&gt;" style="rounded=1;whiteSpace=wrap;html=1;fontSize=10;align=left;" parent="1" vertex="1">
                    <mxGeometry x="10" y="310" width="220" height="40" as="geometry"/>
                </mxCell>
                <mxCell id="24" style="edgeStyle=none;html=1;entryX=0;entryY=1;entryDx=0;entryDy=0;" parent="1" source="21" target="22" edge="1">
                    <mxGeometry relative="1" as="geometry"/>
                </mxCell>
                <object label="%id%&lt;br&gt;%description%&lt;br&gt;%name%" placeholders="1" description="label_21" name="name_21" id="21">
                    <mxCell style="text;strokeColor=none;align=center;fillColor=none;html=1;verticalAlign=middle;whiteSpace=wrap;rounded=0;" parent="1" vertex="1">
                        <mxGeometry x="360" y="40" width="140" height="70" as="geometry"/>
                    </mxCell>
                </object>
                <mxCell id="23" style="edgeStyle=none;html=1;entryX=1;entryY=0.5;entryDx=0;entryDy=0;" parent="1" source="22" target="21" edge="1">
                    <mxGeometry relative="1" as="geometry"/>
                </mxCell>
                <object label="%page%" placeholders="1" id="22">
                    <mxCell style="text;strokeColor=none;align=center;fillColor=none;html=1;verticalAlign=middle;whiteSpace=wrap;rounded=0;" parent="1" vertex="1">
                        <mxGeometry x="570" y="40" width="140" height="70" as="geometry"/>
                    </mxCell>
                </object>
            </root>
        </mxGraphModel>
    </diagram>
</mxfile>